# xmcd
#
# Track frame offsets:
#	150
#	26474
#	48969
#	63494
#	78332
#	95710
#	111740
#	134028
#	155989
#	182175
#	214829
#
# Disc length: 2957 seconds
#
# Revision: 0
# Processed by: cddbd v1.5.1PL0 Copyright (c) Steve Scherf et al.
# Submitted via: dBpowerAMP V4.0
#
DISCID=a80b8b0b
DTITLE=Aute Luis Eduardo - Veinte Canciones De Amor Y Un Poema Desesperado
DYEAR=1986
DGENRE=Blues
TTITLE0=Siento que te estoy perdiendo
TTITLE1=Lentamente
TTITLE2=En ti
TTITLE3=Las cuatro y diez
TTITLE4=De noche todo el dia
TTITLE5=Ay de ti, Ay de mi
TTITLE6=Una de dos
TTITLE7=Un ramo de viento
TTITLE8=Sin tu latido
TTITLE9=El universo
TTITLE10=Epilogo: Un poema desesperado
EXTD=VEINTE CANCIONES DE AMOR Y UN POEMA DESESPERADO
EXTT0=
EXTT1=
EXTT2=
EXTT3=
EXTT4=
EXTT5=
EXTT6=
EXTT7=
EXTT8=
EXTT9=
EXTT10=
PLAYORDER=
